# Blender v2.80 (sub 75) OBJ File: ''
# www.blender.org
mtllib untitled.mtl
o Icosphere
v 0.209504 -0.341141 -0.762852
v 0.098809 0.005398 1.124217
v -0.584116 0.099702 -0.759436
v 0.440910 0.010114 -0.885000
v 1.028422 0.329833 0.107899
v -0.000000 1.183371 -0.349116
v 0.482287 -1.055864 0.050799
v -1.005028 -0.513138 -0.057776
v -0.889814 0.360539 0.503342
vt 0.272727 0.000000
vt 0.190565 0.168881
vt 0.427623 0.139429
vt 0.318592 0.288606
vt 0.762999 0.093477
vt 0.658666 0.274305
vt 0.848235 0.234117
vt 0.476848 0.274305
vt 0.448444 0.139429
vt 0.727272 0.393651
vt 0.985060 0.289045
vt 0.910466 0.419556
vt 0.106898 0.289045
vt 0.181818 0.393651
vt 0.351338 0.412450
vt 0.544360 0.420043
vt 0.150722 0.155078
vt 0.000000 0.157461
vt 0.067874 0.039899
vn -0.2368 -0.7679 -0.5952
vn -0.3364 -0.6000 -0.7258
vn 0.7479 -0.3187 0.5823
vn -0.1388 -0.2425 -0.9602
vn 0.7623 -0.5927 -0.2602
vn 0.3619 0.7398 0.5672
vn -0.1152 0.7721 0.6250
vn -0.7869 0.5384 -0.3017
vn -0.0783 0.3897 -0.9176
vn 0.6634 0.5025 -0.5544
vn -0.9105 0.3017 -0.2827
vn -0.5860 -0.3818 0.7147
vn 0.7988 -0.2932 -0.5253
vn -0.3106 -0.7291 0.6099
usemtl None
s off
f 7/1/1 8/2/1 1/3/1
f 1/3/2 8/2/2 3/4/2
f 7/5/3 5/6/3 2/7/3
f 1/3/4 3/4/4 4/8/4
f 1/9/5 4/8/5 5/6/5
f 2/7/6 5/6/6 6/10/6
f 9/11/7 2/7/7 6/12/7
f 3/4/8 9/13/8 6/14/8
f 4/8/9 3/4/9 6/15/9
f 5/6/10 4/8/10 6/16/10
f 8/2/11 9/13/11 3/4/11
f 8/17/12 2/18/12 9/13/12
f 7/5/13 1/9/13 5/6/13
f 7/19/14 2/18/14 8/17/14
